<svg version="1.1" xmlns="http://www.w3.org/2000/svg" style="display: block;" viewBox="0 0 2048 2048" width="1200" height="1200" preserveAspectRatio="none">
<defs>
	<linearGradient id="Gradient1" gradientUnits="userSpaceOnUse" x1="847.358" y1="1755.04" x2="875.362" y2="678.887">
		<stop class="stop0" offset="0" stop-opacity="1" stop-color="rgb(1,86,246)"/>
		<stop class="stop1" offset="1" stop-opacity="1" stop-color="rgb(2,131,252)"/>
	</linearGradient>
</defs>
<path transform="translate(0,0)" fill="url(#Gradient1)" d="M 361.396 786.59 C 363.437 784.668 369.464 778.915 371.743 778.009 C 387.143 771.884 410.907 760.058 426.298 755.754 C 442.504 751.222 460.798 747.93 477.069 742.347 C 485.153 739.574 493.133 732.648 501.791 730.713 C 514.337 727.91 527.056 724.659 539.539 721.313 C 548.881 718.81 569.643 716.234 577.046 712.707 C 588.733 707.139 589.1 710.767 601.118 708.69 C 602.858 708.39 610.545 704.145 612.895 703.03 C 622.084 698.439 632.08 706.406 641.689 703.864 C 661.331 698.668 676.634 691.993 697.41 693.691 C 699.479 693.86 711.114 687.547 714.959 687.694 C 718.854 687.843 724.351 686.866 728.38 686.888 C 750.454 682.96 772.982 682.624 795.124 680.563 C 820.212 678.227 842.562 677.519 867.747 678.505 C 890.028 679.377 912.527 678.96 934.917 680.123 C 951.502 680.984 969.228 678.952 985.914 680.279 C 994.625 680.829 1003.37 683.241 1012.05 684.208 C 1033.04 685.332 1049.67 685.634 1069.89 693.682 C 1099.33 687.563 1116.73 702.242 1144.73 703.951 C 1152.53 704.428 1150.31 703.28 1157.92 706.179 C 1171.11 711.204 1188.21 710.152 1202.21 714.348 C 1212.81 717.711 1241.57 730.114 1251.99 727.821 C 1277.64 731.767 1284.85 742.08 1308.48 750.461 C 1308.53 750.489 1308.59 750.517 1308.64 750.544 C 1314.88 751.865 1320.86 756.165 1326.5 759.401 C 1357 765.415 1410.17 798.308 1437.32 816.407 C 1446.07 822.242 1457.1 832.978 1466.11 838.558 C 1479.62 846.915 1502.46 858.059 1512.05 871.143 C 1514.77 876.651 1535.71 890.443 1539.38 896.383 C 1548.05 910.389 1570.22 937.222 1576.59 950.816 C 1586.28 971.467 1609.14 1019.02 1610.26 1040.82 L 1616.75 1049.83 L 1616.8 1051.33 C 1617.23 1063.84 1620.21 1077.48 1622.04 1090.21 C 1626.75 1122.91 1618.44 1154.36 1615.42 1186.74 C 1614.57 1195.84 1607.88 1215.15 1608.28 1221.94 C 1607.4 1224.36 1602.92 1234.77 1602.94 1236.14 C 1603.26 1258.67 1600.19 1264.13 1591.1 1283.61 C 1589.41 1290.34 1590.44 1296.31 1589.34 1302.65 C 1586.16 1320.95 1581.8 1341.08 1577.69 1359.18 C 1577.31 1360.85 1570.1 1372.16 1568.75 1374.86 C 1561.51 1389.29 1553.29 1403.21 1545.85 1417.49 C 1540.51 1427.75 1538.18 1441.24 1532.81 1451.33 C 1530.03 1456.54 1522.53 1462.15 1517.84 1466 C 1513.57 1484.1 1508.8 1483.13 1499.43 1497.27 C 1489.18 1512.75 1470.06 1532.88 1461.92 1548.06 C 1449.66 1553.76 1449.3 1559.43 1439.96 1566.73 C 1426.33 1577.38 1414.53 1589.57 1401.49 1600.66 C 1394.5 1606.6 1381.91 1611.14 1374.27 1616.86 C 1367.66 1621.8 1362.14 1627.87 1355.54 1632.77 C 1337.92 1642.39 1324.15 1645.5 1309.45 1660.15 C 1285.03 1663.93 1284.7 1674.63 1262.94 1681.2 C 1261.08 1681.76 1252.13 1681.85 1249.6 1681.88 C 1231.54 1697.3 1175.26 1716.16 1151.37 1716.03 C 1127.53 1731.64 1117.92 1721.33 1094.92 1727.93 C 1089.41 1729.52 1084.36 1734.21 1079.31 1736.95 C 1072.95 1740.4 1024.81 1743.94 1014.96 1744.4 C 1004.04 1744.91 992.687 1744.24 981.85 1745.5 C 971.742 1746.67 962.771 1751.01 952.331 1751.23 C 940.837 1751.46 930.714 1746.69 919.718 1746.29 C 914.314 1746.09 908.988 1747.35 903.744 1748.49 C 892.021 1751.03 882.596 1748.51 871.363 1745.02 C 859.947 1759.12 849.929 1760.54 835.577 1750.98 C 818.794 1750.3 772.679 1753.48 759.268 1747.87 C 744.077 1741.52 718.201 1745.31 701.034 1743.57 C 692.361 1742.69 684.498 1737.3 675.921 1736.52 C 669.729 1735.95 663.094 1738.64 657.01 1737.81 C 646.284 1736.34 622.427 1727.33 609.923 1724.1 C 602.365 1722.14 594.583 1721.5 586.922 1720.1 C 576.289 1718.15 564.554 1715.15 554.097 1712.19 C 545.772 1709.84 537.591 1704.09 529.596 1700.59 C 520.685 1696.69 511.222 1694.18 502.162 1690.67 C 495.858 1688.23 489.976 1684.85 483.683 1682.39 C 478.283 1680.27 472.384 1679.24 466.796 1677.71 C 456.148 1674.79 443.824 1670.38 434.159 1665.08 C 424.686 1659.88 414.678 1653.99 405.604 1648.15 C 397.966 1643.24 390.589 1636.1 382.005 1633 C 378.602 1631.77 374.042 1631.91 370.438 1631.74 C 356.585 1621.87 341.185 1607.76 327.109 1597.42 C 322.744 1594.22 319.003 1586.92 314.143 1582.8 C 303.685 1573.84 291.847 1567.05 280.918 1558.67 C 272.435 1552.17 266.941 1543.42 259.477 1536.26 C 238.768 1516.39 230.878 1489.71 208.608 1470.64 C 204.386 1467.03 194.396 1444.2 190.013 1438.95 C 186.202 1434.38 186.774 1427.43 184.49 1422.22 C 156.165 1384.08 143.847 1338.17 135.182 1292.24 C 130.518 1277.48 122.929 1262.1 119.338 1247.07 C 115.276 1230.07 114.345 1211.79 108.51 1195.05 L 108.022 1193.68 C 109.298 1190.8 111.63 1186.69 111.383 1183.54 C 110.715 1175.02 107.003 1166.59 106.185 1157.97 C 104.745 1142.79 104.978 1063.92 109.64 1054.24 C 113.448 1046.34 113.224 1035.08 115.397 1026.35 C 119.191 1011.11 137.296 969.032 145.639 956.663 C 159.684 935.841 176.928 914.669 194.446 896.662 C 200.404 890.537 207.421 885.56 213.829 879.93 C 234.35 861.9 255.087 843.267 278.107 828.434 C 287.103 822.638 297.032 818.72 306.143 813.237 C 324.591 802.137 339.656 790.75 361.396 786.59 z M 554.136 1697.33 C 552.831 1694.09 552.751 1692.08 550.386 1690.54 L 549.193 1691.41 C 549.163 1694.91 551.054 1695.85 554.136 1697.33 z"/>
<path transform="translate(0,0)" fill="rgb(6,98,247)" d="M 1308.64 750.544 C 1314.88 751.865 1320.86 756.165 1326.5 759.401 C 1322.33 760.511 1311.29 761.778 1308.64 758.075 C 1309.96 755.593 1310.8 756.043 1314.29 754.717 L 1313.41 753.472 C 1310.64 752.817 1310.76 752.557 1308.64 750.544 z"/>
<path transform="translate(0,0)" fill="rgb(0,82,244)" d="M 322.573 911.486 C 336.043 907.268 341.273 898.58 351.883 893.768 C 370.236 885.477 383.334 882.154 400.086 869.916 C 418.529 856.444 449.314 853.196 469.16 844.733 C 492.701 834.763 515.287 828.251 539.838 821.67 C 574.957 812.257 617.536 797.066 653.648 793.694 C 713.533 788.102 777.789 781.789 837.736 778.316 C 887.841 775.797 938.053 776.379 988.087 780.06 C 990.997 784.788 984.439 783.646 989.835 785.188 L 991.104 784.458 C 992.104 783.89 996.88 781.146 997.789 781.231 C 1016.36 782.976 1035.1 785.032 1053.64 787.134 C 1062.43 788.13 1071.54 791.679 1080.42 792.648 C 1094.42 794.32 1108.77 794.955 1122.76 796.87 C 1130.28 797.985 1138.48 801.71 1145.8 802.964 C 1158.56 805.152 1171.04 809.18 1183.51 811.876 C 1200.99 815.653 1218.7 817.241 1235.91 823.006 C 1241.91 825.012 1248.11 826.871 1253.85 829.785 C 1261.1 833.576 1288.95 845.008 1292.45 850.552 C 1290.9 851.996 1290.59 852.233 1288.8 853.378 L 1289.02 854.986 C 1293.88 858.526 1306.45 859.414 1312.73 859.949 C 1313.03 860.264 1313.32 860.582 1313.63 860.893 C 1315.19 862.494 1316.85 864.295 1318.85 865.359 C 1323.67 867.937 1329.42 869.328 1334.45 871.622 C 1341.31 874.756 1347.59 878.919 1354.32 882.286 C 1362.15 886.202 1370.35 889.188 1378.1 893.319 C 1384.08 896.502 1391.51 899.785 1396.76 904.008 C 1400.3 906.862 1402.58 911.098 1406.34 913.761 C 1418.02 922.013 1430.37 929.106 1441.18 938.615 C 1459.2 954.462 1463.53 961.84 1476.54 981.375 C 1495.21 1009.4 1497.31 1008.25 1505.04 1042.4 C 1507.01 1051.12 1509.19 1059.08 1509.15 1068.1 C 1509.12 1077.34 1508.81 1086.62 1509.12 1095.85 C 1509.67 1112.39 1514.09 1142.04 1507.79 1157.19 C 1503 1168.73 1495 1180.77 1488.23 1191.31 C 1482.9 1199.61 1455.82 1235.4 1457.79 1242.36 C 1458.35 1244.35 1458.19 1243.54 1458.37 1245.55 C 1451.89 1246.57 1431.26 1242.63 1425.61 1238.89 C 1423.48 1237.48 1423.64 1224.04 1423.58 1220.53 L 1422.71 1219.29 C 1413.57 1206.12 1407.67 1188.06 1398.49 1174.61 C 1395.53 1170.26 1389.21 1164.62 1385.72 1159.98 C 1372.65 1142.56 1343.15 1111.35 1325.49 1100.14 C 1308.25 1089.19 1280.08 1076.53 1261.32 1065.68 C 1247.45 1057.66 1235.31 1053.2 1220.41 1043.31 C 1181.05 1044.52 1194.96 1039.28 1160.87 1025.94 C 1155.47 1023.83 1133.56 1020.73 1125.49 1018.54 C 1111.59 1014.77 1092.68 1006.25 1078.98 1004.79 C 1055.34 1002.37 1031.74 999.545 1008.05 997.573 C 999.149 996.479 990.344 994.253 981.472 992.994 C 970.178 991.392 958.487 990.926 947.2 989.456 C 921.252 986.077 895.349 988.22 869.281 987.86 C 863.23 987.776 856.954 987.931 850.911 988.252 C 843.943 988.732 837.548 992.314 830.554 992.588 C 809.255 992.215 789.548 993.765 768.372 995.356 C 754.824 996.374 742.052 999.326 729.338 1000.36 C 706.059 1002.26 681.511 1004.11 658.427 1007.79 C 647.328 1009.56 633.475 1016.25 621.033 1018.6 C 605.271 1021.58 588.393 1026.67 572.843 1030.68 C 566.064 1032.43 557.232 1033.68 550.889 1035.88 C 531.987 1042.45 514.962 1051.67 497.014 1060.12 C 487.265 1064.71 475.869 1068.01 465.264 1073.14 C 429.608 1090.37 392.374 1111.86 364.215 1139.99 C 352.852 1151.34 349.976 1159.63 335.575 1168.3 C 334.843 1181.26 323.743 1195.55 315.065 1205.07 C 313.476 1204.44 311.88 1203.84 310.276 1203.26 C 308.267 1206 298.84 1232.63 297.438 1236.94 C 282.98 1235.22 277.379 1238.66 264.634 1228.93 C 223.097 1197.23 208.295 1113.94 215.859 1066.33 C 216.238 1053.15 212.425 1051.74 218.431 1039.73 C 228.92 1007.38 238.906 997.139 260.585 972.253 C 280.2 949.737 304.835 934.016 322.573 911.486 z"/>
<path transform="translate(0,0)" fill="rgb(6,98,247)" d="M 215.859 1066.33 C 216.238 1053.15 212.425 1051.74 218.431 1039.73 C 216.808 1047.19 215.759 1045.84 220.054 1052.12 C 220.763 1056.38 219.307 1058.13 217.538 1062.29 L 215.859 1066.33 z"/>
<path transform="translate(0,0)" fill="rgb(6,98,247)" d="M 969.825 794.514 C 971.527 795.397 970.91 795.021 972.171 796.679 C 970.086 802.044 969.341 803.284 969.903 808.926 C 966.391 805.822 966.145 805.922 965.011 802.02 C 965.737 798.41 967.328 797.244 969.825 794.514 z"/>
<path transform="translate(0,0)" fill="rgb(17,128,253)" d="M 864.658 1731.49 L 865.864 1731.98 L 866.396 1733.31 C 863.704 1738.56 858.96 1743.57 855.074 1748.16 C 854.074 1747.44 854.585 1747.95 853.818 1746.39 C 857.317 1741.34 860.931 1736.37 864.658 1731.49 z"/>
<path transform="translate(0,0)" fill="rgb(193,251,243)" d="M 1259.12 1441.35 C 1260.22 1442.22 1260.73 1443.03 1261.65 1444.14 C 1262.33 1447.37 1261.92 1447.53 1260.56 1450.52 L 1257.76 1449.29 C 1256.57 1445.78 1257.46 1445.87 1259.12 1441.35 z"/>
<path transform="translate(0,0)" fill="rgb(17,128,253)" d="M 1182.15 1042.37 L 1185.96 1043.56 L 1186.25 1044.93 L 1182.7 1048.51 C 1180.75 1048.98 1181.5 1048.87 1179.41 1048.53 C 1179.42 1045.57 1180.28 1045.35 1182.15 1042.37 z"/>
<path transform="translate(0,0)" fill="rgb(17,128,253)" d="M 1000.22 731.142 C 1001.41 730.225 1003.12 730.417 1004.08 731.576 C 1005.04 732.735 1004.92 734.447 1003.79 735.454 C 1003.03 736.14 1001.95 736.353 1000.98 736.008 C 1000.01 735.664 999.312 734.818 999.152 733.803 C 998.992 732.788 999.4 731.767 1000.22 731.142 z"/>
<path transform="translate(0,0)" fill="rgb(6,98,247)" fill-opacity="0.988235" d="M 549.193 1691.41 L 550.386 1690.54 C 552.751 1692.08 552.831 1694.09 554.136 1697.33 C 551.054 1695.85 549.163 1694.91 549.193 1691.41 z"/>
<path transform="translate(0,0)" fill="rgb(17,128,253)" d="M 539.132 1105.73 C 541.483 1104.46 540.297 1104.53 542.661 1104.89 L 542.296 1106.96 C 540.671 1108.24 541.626 1107.91 539.367 1107.75 L 539.132 1105.73 z"/>
<path transform="translate(0,0)" fill="rgb(6,98,247)" d="M 843.745 1612.33 C 846.569 1613.09 845.702 1612.26 846.991 1614.22 L 844.224 1617.56 L 841.734 1616.7 L 841.127 1615.13 L 843.745 1612.33 z"/>
<path transform="translate(0,0)" fill="rgb(2,67,150)" d="M 1736.56 330.833 L 1737.05 332.081 C 1740.02 324.509 1745.23 322.369 1752.73 319.77 C 1779.65 310.437 1793.58 300.236 1822.61 305.365 C 1838.7 308.207 1860.96 305.528 1878.01 313.889 C 1876.57 313.387 1908.09 332.738 1906.84 331.708 C 1931.19 351.996 1945.67 379.662 1950.9 410.613 C 1956.07 441.18 1956.19 473.692 1942.01 502.319 C 1930.11 526.356 1901.15 546.997 1882.15 566.456 C 1867.54 581.416 1837.2 597.077 1824.49 613.957 C 1820.17 615.188 1805.54 619.698 1803.22 622.577 C 1799.18 642.551 1791.85 634.565 1778.2 646.311 C 1760.91 661.178 1742.81 674.024 1727.53 691.065 C 1724.99 693.897 1718.53 697.758 1715.21 700.368 C 1706.11 707.533 1695.63 713.173 1686.4 720.156 C 1672.53 732.454 1669.79 743.251 1650.39 749.446 C 1640.01 770.594 1612.67 787.266 1593.99 800.823 C 1588.11 804.499 1583.31 816.861 1578.58 820.666 C 1564.87 831.691 1550.57 843.205 1536.3 853.479 C 1530.11 857.935 1522.07 868.899 1517.56 871.133 L 1512.05 871.143 C 1502.46 858.059 1479.62 846.915 1466.11 838.558 C 1457.1 832.978 1446.07 822.242 1437.32 816.407 C 1410.17 798.308 1357 765.415 1326.5 759.401 C 1320.86 756.165 1314.88 751.865 1308.64 750.544 C 1308.59 750.517 1308.53 750.489 1308.48 750.461 C 1284.85 742.08 1277.64 731.767 1251.99 727.821 C 1256.4 720.456 1276.15 710.43 1284.54 708.473 C 1296.95 690.672 1337.16 669.885 1346.6 647.625 C 1371.48 639.142 1411.91 586.965 1434.73 581.685 C 1440.15 572.313 1445.92 566.922 1454.48 560.379 C 1465.9 551.643 1486.09 518.12 1497.17 512.481 C 1513.88 503.971 1528.11 482.124 1541.83 475.551 C 1547.42 472.546 1550.56 470.671 1555.82 467.074 L 1557.65 455.602 C 1586.61 442.57 1612.48 403.133 1642.19 387.508 C 1644.62 385.675 1652.13 374.05 1654.4 373.365 C 1668.32 369.161 1679.98 356.215 1692.31 351.828 C 1712.31 342.263 1707.22 351.639 1722.62 332.861 C 1729.61 333.838 1730.97 334.635 1736.56 330.833 z"/>
<path transform="translate(0,0)" fill="rgb(2,46,140)" d="M 1692.31 351.828 C 1689.21 356.054 1675.85 363.142 1670.24 368.35 C 1663.3 374.795 1656.71 382.013 1649.79 388.224 C 1647.14 390.596 1640.04 394.417 1635.78 397.987 C 1615.01 415.441 1595.02 433.805 1575.87 453.027 C 1569.68 459.218 1557.72 475.224 1552.55 476.131 L 1552.27 475.221 C 1562.28 471.134 1560.36 465.725 1566.6 459.737 C 1579.5 447.34 1591.85 434.536 1604.53 421.931 C 1588.52 431.499 1588.6 436.136 1575.68 448.351 C 1572.09 451.736 1563.76 452.449 1559.55 458.027 C 1558.61 462.134 1558.25 464.539 1557.79 468.736 C 1551.87 472.486 1548.62 475.689 1541.83 475.551 C 1547.42 472.546 1550.56 470.671 1555.82 467.074 L 1557.65 455.602 C 1586.61 442.57 1612.48 403.133 1642.19 387.508 C 1644.62 385.675 1652.13 374.05 1654.4 373.365 C 1668.32 369.161 1679.98 356.215 1692.31 351.828 z"/>
<path transform="translate(0,0)" fill="rgb(2,46,140)" d="M 1652.8 450.067 C 1656.56 450.058 1656.59 449.44 1659.32 451.124 L 1659.76 453.752 C 1656.94 453.739 1655.74 454.069 1653.38 452.641 L 1652.8 450.067 z"/>
<path transform="translate(0,0)" fill="rgb(2,46,140)" d="M 1591.18 585.362 C 1592.34 584.676 1593.82 585.01 1594.57 586.123 C 1595.31 587.236 1595.06 588.739 1593.99 589.542 C 1593.24 590.101 1592.25 590.203 1591.4 589.807 C 1590.56 589.411 1590 588.581 1589.96 587.651 C 1589.91 586.72 1590.38 585.84 1591.18 585.362 z"/>
<path transform="translate(0,0)" fill="rgb(2,46,140)" d="M 1478.51 702.118 C 1479.18 701.642 1480.05 701.566 1480.79 701.92 C 1481.53 702.273 1482.02 703 1482.07 703.818 C 1482.12 704.636 1481.72 705.417 1481.03 705.855 C 1480 706.509 1478.63 706.223 1477.95 705.211 C 1477.27 704.198 1477.52 702.827 1478.51 702.118 z"/>
<path transform="translate(0,0)" fill="rgb(2,46,140)" fill-opacity="0.988235" d="M 1722.62 332.861 C 1725.71 329.86 1726.06 329.164 1730 327.859 C 1733.4 327.967 1733.9 328.732 1736.56 330.833 C 1730.97 334.635 1729.61 333.838 1722.62 332.861 z"/>
</svg>